<svg xmlns="http://www.w3.org/2000/svg" width="99" height="58" viewBox="0 0 99 58" fill="none"><path d="M6.6127 58C7.56941 57.9995 8.5134 57.7778 9.37275 57.3517C10.2321 56.9257 10.9842 56.3066 11.5717 55.5416C12.1592 54.7766 12.5666 53.8859 12.763 52.9372C12.9593 51.9885 12.9394 51.007 12.7047 50.0673C12.7473 50.0356 12.7935 50.0041 12.844 49.9733L29.1838 35.4054C30.3475 36.4912 31.8728 37.0922 33.4548 37.0882C35.0368 37.0842 36.5591 36.4755 37.7175 35.3838C37.7175 35.3838 54.7651 50.1908 54.8344 50.234C54.9036 50.2771 54.966 50.3203 55.026 50.3634C54.9087 51.2279 54.968 52.1077 55.2004 52.948C55.4327 53.7883 55.8331 54.5712 56.3767 55.2481C56.9202 55.9251 57.5953 56.4816 58.3601 56.8831C59.1248 57.2846 59.9629 57.5225 60.8222 57.5821C61.6815 57.6417 62.5437 57.5217 63.3553 57.2295C64.167 56.9373 64.9106 56.4792 65.5401 55.8836C66.1696 55.288 66.6716 54.5676 67.0148 53.7672C67.358 52.9669 67.5351 52.1035 67.5351 51.2309C67.5367 50.0409 67.2075 48.8746 66.585 47.8655C74.125 37.3734 83.6481 23.8694 91.1544 13.3535C91.1721 13.3289 91.1897 13.3086 91.2074 13.2855C92.6547 13.6466 94.1815 13.4751 95.5156 12.8016C96.8497 12.1282 97.9044 10.9965 98.4916 9.60854C99.0787 8.22053 99.1603 6.66636 98.7216 5.22312C98.2829 3.77988 97.3526 2.54141 96.0964 1.72852C94.8403 0.915625 93.34 0.581157 91.8631 0.78475C90.3861 0.988343 89.0286 1.71676 88.0325 2.84013C87.0364 3.9635 86.4664 5.40879 86.4243 6.9183C86.3822 8.42782 86.8706 9.90344 87.8024 11.082C80.3332 21.4659 70.8719 34.8555 63.4185 45.2506C62.2997 44.8353 61.0875 44.7505 59.923 45.0061C58.7585 45.2616 57.6897 45.8471 56.8408 46.6943C56.8408 46.6943 39.8044 31.8808 39.7599 31.8534C39.7154 31.826 39.6771 31.7981 39.6366 31.7705C39.7874 30.8588 39.7403 29.9247 39.4987 29.0332C39.2571 28.1417 38.8268 27.3142 38.2377 26.6082C37.6485 25.9023 36.9147 25.3348 36.0872 24.9452C35.2597 24.5556 34.3584 24.3532 33.4459 24.3522C32.5335 24.3512 31.6317 24.5515 30.8033 24.9392C29.975 25.3269 29.2399 25.8928 28.6492 26.5974C28.0585 27.302 27.6264 28.1285 27.3828 29.0195C27.1393 29.9104 27.0902 30.8444 27.2389 31.7565C27.175 31.8016 27.1079 31.8458 27.0359 31.8903C27.0359 31.8903 10.4823 46.6195 10.8909 46.3999C10.7603 46.4833 10.6238 46.5567 10.4823 46.6195C9.69375 45.9948 8.76928 45.57 7.78589 45.3805C6.80251 45.191 5.78866 45.2423 4.82878 45.53C3.86891 45.8178 2.99079 46.3337 2.26754 47.0349C1.54429 47.7361 0.996839 48.6021 0.67079 49.561C0.344741 50.5199 0.249523 51.5438 0.393064 52.5475C0.536606 53.5512 0.914758 54.5056 1.49602 55.3313C2.07728 56.157 2.84484 56.83 3.73477 57.2944C4.6247 57.7587 5.61168 58.0001 6.6127 58Z" fill="#C7F3A4"/></svg>