<svg xmlns="http://www.w3.org/2000/svg" width="190" height="190" viewBox="0 0 190 190" fill="none"><g filter="url(#filter0_d_629_234)"><circle cx="95" cy="95" r="62.5" fill="url(#paint0_linear_629_234)" stroke="white" stroke-width="5"/><path d="M91.3549 125.146C91.0277 123.642 90.6838 122.191 90.4036 120.728C90.1889 119.611 89.5687 118.983 88.4898 118.6C86.8323 118.01 85.2064 117.335 83.6188 116.578C82.564 116.075 81.6617 116.074 80.6968 116.732C79.4647 117.572 78.1932 118.355 76.9938 119.127L71.0106 113.143C71.756 111.982 72.5259 110.709 73.3733 109.488C74.0747 108.478 74.0565 107.545 73.5254 106.448C72.7738 104.882 72.1086 103.277 71.533 101.639C71.1499 100.559 70.5145 99.9464 69.3972 99.7321C67.9343 99.4513 66.4841 99.1044 65 98.7798V90.3624C66.4542 90.0417 67.8982 89.6867 69.3579 89.4129C70.5042 89.1979 71.1497 88.5824 71.5405 87.4727C72.1306 85.8157 72.8062 84.1902 73.5645 82.603C74.0508 81.5765 74.0741 80.6911 73.4286 79.743C72.5769 78.4915 71.7828 77.2009 70.9902 75.9679L76.9658 69.9988C78.1618 70.7663 79.4371 71.5383 80.6608 72.3859C81.6742 73.088 82.6078 73.0517 83.7013 72.5191C85.2429 71.7688 86.8279 71.1111 88.4479 70.5497C89.5576 70.1651 90.1904 69.5335 90.4074 68.3853C90.6837 66.9233 91.0326 65.4752 91.3549 64H99.7675C99.9958 65.0227 100.333 66.0595 100.442 67.1198C100.654 69.1844 101.558 70.4552 103.711 70.8996C104.902 71.1453 106.063 71.7324 107.124 72.3585C108.457 73.1447 109.589 73.0787 110.815 72.1737C111.903 71.3706 113.084 70.6949 114.191 69.9843L120.158 75.9511C119.358 77.1954 118.563 78.4857 117.712 79.7372C117.068 80.6836 117.085 81.568 117.57 82.5969C118.328 84.2061 119.007 85.8588 119.613 87.5316C119.994 88.5803 120.618 89.1867 121.706 89.4001C123.186 89.6907 124.656 90.0358 126.146 90.3607V98.77C124.908 99.0454 123.659 99.3225 122.411 99.6007C122.037 99.6841 121.661 99.7651 121.289 99.8565C120.526 100.044 120.048 100.527 119.754 101.253C118.984 103.155 118.196 105.049 117.392 106.937C117.038 107.765 117.141 108.511 117.622 109.248C118.474 110.555 119.312 111.87 120.113 113.117L114.118 119.108C112.931 118.346 111.642 117.549 110.387 116.701C109.465 116.078 108.6 116.075 107.589 116.548C105.958 117.312 104.283 117.996 102.59 118.614C101.544 118.997 100.944 119.63 100.733 120.718C100.446 122.197 100.098 123.664 99.7747 125.145L91.3549 125.146ZM112.205 94.5978C112.274 85.499 104.851 78.0442 95.6134 77.9353C86.5429 77.8285 79.0873 85.2353 78.9317 94.5077C78.7796 103.564 86.3561 111.173 95.5573 111.204C104.69 111.235 112.136 103.807 112.205 94.5978Z" fill="white" stroke="white" stroke-width="1.46186"/></g><defs><filter id="filter0_d_629_234" x="0" y="0" width="190" height="190" filterUnits="userSpaceOnUse" color-interpolation-filters="sRGB"><feFlood flood-opacity="0" result="BackgroundImageFix"/><feColorMatrix in="SourceAlpha" type="matrix" values="0 0 0 0 0 0 0 0 0 0 0 0 0 0 0 0 0 0 127 0" result="hardAlpha"/><feOffset/><feGaussianBlur stdDeviation="15"/><feComposite in2="hardAlpha" operator="out"/><feColorMatrix type="matrix" values="0 0 0 0 0 0 0 0 0 0 0 0 0 0 0 0 0 0 0.15 0"/><feBlend mode="normal" in2="BackgroundImageFix" result="effect1_dropShadow_629_234"/><feBlend mode="normal" in="SourceGraphic" in2="effect1_dropShadow_629_234" result="shape"/></filter><linearGradient id="paint0_linear_629_234" x1="134.5" y1="145" x2="35" y2="24" gradientUnits="userSpaceOnUse"><stop stop-color="#2EABA4"/><stop offset="1" stop-color="#82EDE6"/></linearGradient></defs></svg>