<svg xmlns="http://www.w3.org/2000/svg" width="52" height="50" viewBox="0 0 52 50" fill="none"><path d="M22.5929 2.28876C24.0587 -0.416725 27.9413 -0.416726 29.4071 2.28876L34.7384 12.1291C35.2964 13.1592 36.2906 13.8815 37.4428 14.094L48.4489 16.1235C51.4749 16.6814 52.6748 20.3741 50.5546 22.6042L42.8434 30.7153C42.0361 31.5644 41.6564 32.7331 41.8104 33.8945L43.2813 44.9892C43.6857 48.0395 40.5446 50.3217 37.7685 48.9945L27.6714 44.1671C26.6144 43.6618 25.3856 43.6618 24.3286 44.1671L14.2315 48.9945C11.4554 50.3217 8.31428 48.0395 8.7187 44.9892L10.1896 33.8945C10.3436 32.7331 9.96386 31.5644 9.15663 30.7153L1.44536 22.6042C-0.674761 20.3741 0.525048 16.6814 3.55107 16.1235L14.5572 14.094C15.7094 13.8815 16.7036 13.1592 17.2616 12.1291L22.5929 2.28876Z" fill="#CAFDA1"/></svg>