<svg xmlns="http://www.w3.org/2000/svg" width="82" height="93" viewBox="0 0 82 93" fill="none"><path d="M81.9885 44.2158C81.9885 38.3737 82.0213 32.5319 81.9754 26.6895C81.9734 25.6532 81.7304 24.632 81.2661 23.7086C80.8018 22.7852 80.1293 21.9856 79.303 21.3747C78.4768 20.7638 77.5201 20.3588 76.5105 20.1925C75.5009 20.0261 74.4668 20.1031 73.4921 20.4173C70.6961 21.3058 68.9258 23.837 68.9251 26.9932C68.921 46.43 68.9201 65.8669 68.9227 85.304C68.9227 85.7195 68.9128 86.135 68.9289 86.5505C68.9572 87.4945 69.1851 88.4212 69.5973 89.2683C70.0094 90.1153 70.5962 90.8629 71.3179 91.4605C72.0396 92.0581 72.8796 92.4919 73.7809 92.7324C74.6823 92.973 75.6241 93.0148 76.5428 92.855C79.7513 92.3172 81.9797 89.6058 81.9836 86.1638C81.9954 76.2791 81.9969 66.3945 81.9882 56.5099C81.9887 52.4116 81.9888 48.3136 81.9885 44.2158Z" fill="#C7F3A4"/><path d="M36.0327 44.5529C36.0393 43.6845 35.8753 42.8235 35.5503 42.0199C35.2252 41.2163 34.7457 40.4863 34.1396 39.8722C33.5334 39.2582 32.8128 38.7725 32.0196 38.4433C31.2264 38.1141 30.3765 37.948 29.5194 37.9548C25.9288 37.9486 22.9936 40.8214 22.989 44.4432C22.9716 58.4522 22.9728 72.4613 22.9926 86.4705C22.9954 88.5922 23.8871 90.3501 25.5714 91.6089C27.6865 93.1896 30.0127 93.4429 32.3737 92.2676C34.7675 91.0761 36.0129 89.0258 36.0276 86.3301C36.0657 79.3811 36.0403 72.4318 36.0404 65.4826C36.0406 58.5066 36.0603 51.5297 36.0327 44.5529Z" fill="#C7F3A4"/><path d="M11.9696 55.153C11.2007 53.9787 10.0812 53.0843 8.77482 52.6005C7.4684 52.1168 6.04351 52.0691 4.70841 52.4644C3.36889 52.8478 2.18799 53.6606 1.34247 54.7808C0.496959 55.9011 0.0323111 57.2687 0.01809 58.6789C-0.0147186 63.3014 0.00939922 67.9244 0.00939922 72.5473H0.00595496C0.00595496 77.1424 -0.0104522 81.7381 0.0112015 86.3327C0.00585491 87.2045 0.170811 88.0688 0.496567 88.8757C0.822324 89.6827 1.30245 90.4163 1.90927 91.0344C2.5161 91.6526 3.23764 92.1429 4.03233 92.4773C4.82702 92.8117 5.67916 92.9835 6.53966 92.9827C7.40016 92.982 8.25202 92.8088 9.04617 92.4731C9.84031 92.1374 10.561 91.6458 11.1669 91.0266C11.7727 90.4075 12.2516 89.673 12.576 88.8656C12.9005 88.0581 13.064 87.1936 13.0572 86.3218C13.0779 77.1586 13.0794 67.996 13.0616 58.8338C13.073 57.5233 12.6922 56.24 11.9696 55.153Z" fill="#C7F3A4"/><path d="M58.7572 57.0464C58.35 55.5217 57.413 54.1972 56.1187 53.3166C54.8243 52.4361 53.2596 52.0587 51.7125 52.2539C48.4556 52.6566 45.9904 55.3558 45.963 58.6649C45.9244 63.2874 45.9533 67.9106 45.9528 72.5334C45.9528 77.0732 45.9426 81.6131 45.9631 86.1528C45.9604 86.8159 46.0425 87.4766 46.2074 88.1183C47.0532 91.2578 50.0755 93.3265 53.1668 92.9288C56.5444 92.4942 58.9911 89.8194 59.0008 86.4177C59.027 77.1999 59.0268 67.9818 59 58.7636C58.9927 58.183 58.911 57.6058 58.7572 57.0464Z" fill="#C7F3A4"/><path d="M6.53401 42.0987C7.27107 42.0983 7.99831 41.9275 8.66036 41.5993C9.3224 41.2711 9.9018 40.7941 10.3544 40.2048C10.807 39.6154 11.1209 38.9292 11.2722 38.1983C11.4234 37.4675 11.4081 36.7113 11.2273 35.9873C11.2601 35.9629 11.2957 35.9387 11.3346 35.9149C16.3092 32.8621 21.2592 29.7696 26.2339 26.7166C27.1305 27.5531 28.3055 28.0161 29.5243 28.013C30.7431 28.0099 31.9159 27.541 32.8083 26.6999C37.7077 29.7599 42.6169 32.803 47.5359 35.8293C47.5892 35.8625 47.6373 35.8958 47.6836 35.929C47.5932 36.595 47.6389 37.2728 47.8179 37.9201C47.9969 38.5675 48.3054 39.1707 48.7241 39.6922C49.1429 40.2137 49.663 40.6424 50.2521 40.9518C50.8413 41.2611 51.4869 41.4444 52.149 41.4903C52.811 41.5362 53.4752 41.4437 54.1005 41.2186C54.7258 40.9935 55.2987 40.6406 55.7836 40.1817C56.2686 39.7229 56.6553 39.1679 56.9197 38.5513C57.1841 37.9347 57.3206 37.2696 57.3206 36.5973C57.3218 35.6806 57.0681 34.782 56.5886 34.0046C62.3974 25.9215 68.1932 17.8292 73.9761 9.72778C73.9897 9.70883 74.0033 9.69321 74.0169 9.67542C75.1319 9.95355 76.3082 9.82143 77.336 9.30261C78.3638 8.78379 79.1763 7.91199 79.6286 6.84267C80.081 5.77335 80.1438 4.57601 79.8058 3.46415C79.4679 2.35228 78.7511 1.39816 77.7834 0.771905C76.8157 0.145653 75.6598 -0.11202 74.522 0.0448276C73.3842 0.201676 72.3383 0.76285 71.5709 1.62829C70.8035 2.49373 70.3645 3.60718 70.332 4.77011C70.2995 5.93305 70.6758 7.06986 71.3937 7.97786C65.6394 15.9776 59.8912 23.9817 54.1492 31.9901C53.2873 31.6701 52.3534 31.6048 51.4562 31.8017C50.5591 31.9986 49.7356 32.4496 49.0817 33.1023C44.1914 30.0455 39.2914 27.0048 34.3818 23.9801C34.3475 23.959 34.318 23.9375 34.2868 23.9163C34.4029 23.2138 34.3667 22.4942 34.1806 21.8074C33.9944 21.1206 33.6629 20.4831 33.209 19.9392C32.7552 19.3954 32.1898 18.9582 31.5523 18.658C30.9148 18.3579 30.2205 18.202 29.5175 18.2012C28.8145 18.2004 28.1198 18.3547 27.4817 18.6534C26.8435 18.9521 26.2772 19.388 25.8221 19.9309C25.3671 20.4737 25.0341 21.1105 24.8465 21.7968C24.6589 22.4832 24.621 23.2028 24.7356 23.9055C24.6864 23.9402 24.6347 23.9743 24.5792 24.0085C19.6567 27.049 14.7403 30.1001 9.82997 33.1619C9.72936 33.2262 9.62413 33.2828 9.51517 33.3311C8.90766 32.8499 8.19545 32.5226 7.43784 32.3766C6.68024 32.2306 5.89918 32.2701 5.15969 32.4918C4.4202 32.7135 3.7437 33.111 3.1865 33.6512C2.62931 34.1913 2.20756 34.8586 1.95637 35.5973C1.70518 36.336 1.63183 37.1248 1.74241 37.8981C1.853 38.6713 2.14432 39.4066 2.59213 40.0427C3.03993 40.6788 3.63126 41.1973 4.31686 41.5551C5.00246 41.9128 5.76251 42.0994 6.53369 42.0993L6.53401 42.0987Z" fill="#C7F3A4"/></svg>