<svg xmlns="http://www.w3.org/2000/svg" width="190" height="190" viewBox="0 0 190 190" fill="none"><g filter="url(#filter0_d_629_250)"><circle cx="95" cy="95" r="62.5" fill="url(#paint0_linear_629_250)" stroke="white" stroke-width="5"/><circle cx="120.423" cy="73.5772" r="11.5772" fill="white"/><path d="M122.998 79.1001C123.489 79.3023 123.685 78.9219 123.779 78.3355L125.499 67.7193C125.609 67.0397 125.212 66.9028 124.421 67.3629L113.04 73.9762C112.506 74.2861 112.347 74.7156 112.877 74.9337L115.704 76.0973L123.437 69.4002L117.208 77.0748V79.5935C117.208 80.2691 117.825 80.16 118.281 79.5935L119.754 77.765L122.998 79.1001Z" fill="#E0A022"/><g clip-path="url(#clip0_629_250)"><path d="M86.6869 91.1792C86.9453 91.2855 87.222 91.3401 87.5014 91.3399C88.0654 91.3383 88.6056 91.1132 89.0038 90.7139C89.402 90.3146 89.6256 89.7737 89.6256 89.2097C89.6246 88.6457 89.3997 88.105 89.0002 87.7067C88.6008 87.3085 88.0595 87.0852 87.4954 87.0859C87.2161 87.0864 86.9396 87.1418 86.6817 87.2491C86.4238 87.3564 86.1896 87.5135 85.9924 87.7113C85.7952 87.9091 85.6389 88.1437 85.5324 88.4019C85.4259 88.6602 85.3713 88.9369 85.3717 89.2162C85.3727 89.6367 85.4981 90.0474 85.7322 90.3967C85.9662 90.7461 86.2984 91.0183 86.6869 91.1792Z" fill="white"/><path d="M96.5396 110.742V78.9941H69.9449V110.742H96.5396ZM72.6068 81.6569L93.8801 81.6536V95.4073L90.512 94.4987C90.0701 94.3811 89.6035 94.3946 89.1691 94.5376L85.1286 95.8968L79.3864 90.4907C78.9939 90.1589 78.5007 89.9697 77.987 89.9537C77.4733 89.9377 76.9693 90.096 76.5569 90.4028L72.6068 93.5054V81.6569ZM72.6044 97.036L77.8837 92.8895L84.4363 99.0574L89.9197 97.2157L93.881 98.2845V108.085H72.6044V97.036Z" fill="white"/><path d="M122.275 87.345V114.329H91.8087C91.3874 114.327 90.9698 114.409 90.5803 114.569C90.1908 114.73 89.837 114.966 89.5395 115.265L81.5235 123.285L73.5028 115.265C73.2062 114.966 72.8533 114.73 72.4645 114.569C72.0758 114.409 71.6589 114.327 71.2383 114.329H66.7047V75.4298H106.655C106.571 74.8159 106.53 74.197 106.53 73.5774C106.53 72.9579 106.571 72.339 106.655 71.7251H66.0703C65.2561 71.7253 64.4753 72.0489 63.8995 72.6246C63.3238 73.2003 63.0002 73.9811 63 74.7953V114.964C63.0011 115.777 63.3249 116.558 63.9005 117.133C64.476 117.709 65.2563 118.033 66.0703 118.034H71.0299L81.5235 128.523L92.017 118.034H122.91C123.724 118.033 124.504 117.709 125.079 117.133C125.655 116.558 125.979 115.777 125.98 114.964V86.3123C124.8 86.8302 123.553 87.1779 122.275 87.345Z" fill="white"/><path d="M100.445 84.9139C100.445 85.4051 100.64 85.8763 100.988 86.2237C101.335 86.571 101.806 86.7662 102.298 86.7662H116.056C113.849 86.0401 111.862 84.7653 110.281 83.0615H102.298C101.806 83.0615 101.335 83.2567 100.988 83.6041C100.64 83.9515 100.445 84.4226 100.445 84.9139Z" fill="white"/><path d="M100.444 93.6946C100.444 94.1859 100.639 94.6571 100.986 95.0045C101.334 95.3519 101.805 95.547 102.296 95.547H116.349C116.84 95.547 117.311 95.3519 117.658 95.0045C118.006 94.6571 118.201 94.1859 118.201 93.6946C118.201 93.2034 118.006 92.7322 117.658 92.3849C117.311 92.0375 116.84 91.8423 116.349 91.8423H102.296C101.805 91.8423 101.334 92.0375 100.986 92.3849C100.639 92.7322 100.444 93.2034 100.444 93.6946Z" fill="white"/><path d="M102.296 100.435C101.805 100.435 101.334 100.63 100.986 100.978C100.639 101.325 100.444 101.796 100.444 102.287C100.444 102.779 100.639 103.25 100.986 103.597C101.334 103.945 101.805 104.14 102.296 104.14H108.995C109.486 104.14 109.957 103.945 110.305 103.597C110.652 103.25 110.847 102.779 110.847 102.287C110.847 101.796 110.652 101.325 110.305 100.978C109.957 100.63 109.486 100.435 108.995 100.435H102.296Z" fill="white"/></g></g><defs><filter id="filter0_d_629_250" x="0" y="0" width="190" height="190" filterUnits="userSpaceOnUse" color-interpolation-filters="sRGB"><feFlood flood-opacity="0" result="BackgroundImageFix"/><feColorMatrix in="SourceAlpha" type="matrix" values="0 0 0 0 0 0 0 0 0 0 0 0 0 0 0 0 0 0 127 0" result="hardAlpha"/><feOffset/><feGaussianBlur stdDeviation="15"/><feComposite in2="hardAlpha" operator="out"/><feColorMatrix type="matrix" values="0 0 0 0 0 0 0 0 0 0 0 0 0 0 0 0 0 0 0.15 0"/><feBlend mode="normal" in2="BackgroundImageFix" result="effect1_dropShadow_629_250"/><feBlend mode="normal" in="SourceGraphic" in2="effect1_dropShadow_629_250" result="shape"/></filter><linearGradient id="paint0_linear_629_250" x1="129" y1="158" x2="43" y2="3.00001" gradientUnits="userSpaceOnUse"><stop stop-color="#DE9C1C"/><stop offset="1" stop-color="#FACC57"/></linearGradient><clipPath id="clip0_629_250"><rect width="62.9799" height="56.7977" fill="white" transform="translate(63 71.7251)"/></clipPath></defs></svg>