<svg xmlns="http://www.w3.org/2000/svg" width="190" height="190" viewBox="0 0 190 190" fill="none"><g filter="url(#filter0_d_629_272)"><circle cx="95" cy="95" r="62.5" fill="url(#paint0_linear_629_272)" stroke="white" stroke-width="5"/><path d="M118.531 71.4734C112.985 65.9447 105.609 62.6118 97.7772 62.0958C89.9457 61.5797 82.1929 63.9156 75.9631 68.6683C69.7334 73.421 65.4516 80.2663 63.9157 87.9288C62.3798 95.5913 63.6945 103.548 67.6148 110.317L63.0256 127.003L80.1746 122.527C84.9178 125.098 90.2325 126.446 95.6334 126.446H95.6473C102.045 126.446 108.299 124.558 113.619 121.02C118.939 117.483 123.086 112.454 125.535 106.57C127.985 100.686 128.626 94.2111 127.38 87.964C126.133 81.717 123.054 75.9782 118.531 71.4734ZM95.6473 121.008H95.64C90.8247 121.009 86.0979 119.72 81.9545 117.278L80.9721 116.698L70.793 119.354L73.5098 109.477L72.87 108.465C69.7013 103.437 68.3006 97.5046 68.888 91.5986C69.4754 85.6926 72.0176 80.1484 76.1151 75.8376C80.2125 71.5267 85.6328 68.6937 91.5238 67.7838C97.4149 66.8739 103.443 67.9388 108.659 70.8111C113.876 73.6833 117.986 78.2001 120.344 83.6513C122.701 89.1024 123.172 95.1789 121.682 100.926C120.192 106.672 116.827 111.763 112.114 115.398C107.401 119.032 101.609 121.005 95.6473 121.005V121.008Z" fill="white"/><path d="M93.6542 111.062C93.4768 110.246 93.2905 109.461 93.1387 108.668C93.0223 108.062 92.6863 107.722 92.1016 107.514C91.2035 107.195 90.3225 106.829 89.4622 106.419C88.8906 106.146 88.4017 106.146 87.8789 106.502C87.2112 106.958 86.5222 107.382 85.8723 107.8L82.6302 104.558C83.0341 103.929 83.4513 103.239 83.9105 102.577C84.2906 102.03 84.2807 101.524 83.9929 100.93C83.5856 100.082 83.2252 99.2116 82.9133 98.3239C82.7057 97.7386 82.3614 97.4069 81.756 97.2907C80.9633 97.1386 80.1775 96.9506 79.3733 96.7747V92.2136C80.1613 92.0398 80.9437 91.8475 81.7347 91.6991C82.3558 91.5826 82.7056 91.2491 82.9173 90.6478C83.2371 89.7499 83.6032 88.8691 84.0141 88.0091C84.2776 87.4529 84.2903 86.9731 83.9405 86.4593C83.4789 85.7812 83.0486 85.0818 82.6192 84.4137L85.8572 81.1793C86.5052 81.5951 87.1963 82.0134 87.8594 82.4728C88.4085 82.8532 88.9144 82.8336 89.5069 82.5449C90.3422 82.1383 91.2011 81.782 92.0789 81.4778C92.6802 81.2694 93.0231 80.9271 93.1407 80.305C93.2904 79.5128 93.4795 78.7281 93.6542 77.9287H98.2126C98.3364 78.4829 98.5191 79.0447 98.5781 79.6192C98.6928 80.738 99.1831 81.4266 100.35 81.6674C100.995 81.8005 101.624 82.1187 102.199 82.4579C102.921 82.8839 103.535 82.8481 104.199 82.3577C104.788 81.9226 105.429 81.5565 106.028 81.1714L109.261 84.4046C108.828 85.0789 108.397 85.778 107.936 86.4562C107.587 86.969 107.596 87.4482 107.859 88.0058C108.27 88.8777 108.638 89.7733 108.966 90.6797C109.172 91.248 109.511 91.5765 110.1 91.6922C110.903 91.8496 111.699 92.0367 112.506 92.2127V96.7694C111.835 96.9187 111.159 97.0688 110.483 97.2195C110.28 97.2647 110.076 97.3086 109.874 97.3582C109.461 97.4598 109.202 97.7217 109.043 98.115C108.625 99.1453 108.199 100.172 107.763 101.195C107.571 101.644 107.627 102.048 107.887 102.447C108.349 103.155 108.803 103.868 109.237 104.543L105.989 107.79C105.345 107.377 104.647 106.945 103.967 106.486C103.467 106.148 102.999 106.146 102.451 106.403C101.567 106.817 100.659 107.187 99.7422 107.522C99.1751 107.73 98.8502 108.073 98.7358 108.662C98.5804 109.464 98.3919 110.259 98.2165 111.061L93.6542 111.062ZM104.952 94.5086C104.989 89.5783 100.967 85.5388 95.9617 85.4798C91.0467 85.4219 87.0067 89.4354 86.9224 94.4598C86.84 99.3673 90.9454 103.49 95.9313 103.507C100.88 103.524 104.915 99.4989 104.952 94.5086Z" fill="white" stroke="white" stroke-width="0.799554"/></g><defs><filter id="filter0_d_629_272" x="0" y="0" width="190" height="190" filterUnits="userSpaceOnUse" color-interpolation-filters="sRGB"><feFlood flood-opacity="0" result="BackgroundImageFix"/><feColorMatrix in="SourceAlpha" type="matrix" values="0 0 0 0 0 0 0 0 0 0 0 0 0 0 0 0 0 0 127 0" result="hardAlpha"/><feOffset/><feGaussianBlur stdDeviation="15"/><feComposite in2="hardAlpha" operator="out"/><feColorMatrix type="matrix" values="0 0 0 0 0 0 0 0 0 0 0 0 0 0 0 0 0 0 0.15 0"/><feBlend mode="normal" in2="BackgroundImageFix" result="effect1_dropShadow_629_272"/><feBlend mode="normal" in="SourceGraphic" in2="effect1_dropShadow_629_272" result="shape"/></filter><linearGradient id="paint0_linear_629_272" x1="109.4" y1="140.6" x2="51.8" y2="13.4" gradientUnits="userSpaceOnUse"><stop stop-color="#1FB176"/><stop offset="1" stop-color="#59E1A3"/></linearGradient></defs></svg>