<svg xmlns="http://www.w3.org/2000/svg" width="93" height="102" viewBox="0 0 93 102" fill="none"><path d="M1.37348 85.3445C0.600632 86.2137 0.696985 87.663 1.56686 88.4359L16.7319 101.476C17.6011 102.249 19.0503 102.152 19.8233 101.282L26.8745 93.1687L8.52151 77.3271L1.37348 85.3445Z" fill="#C7F3A4"/><path d="M91.4 63.8972C90.2411 62.5449 88.502 61.9655 86.7636 62.3515L72.081 65.9254C72.081 66.2151 72.081 66.6019 71.9847 66.8916C71.5016 71.0448 68.3139 74.426 64.1607 75.0054L63.1945 75.1018C57.7853 75.8746 52.2791 76.1643 46.8698 76.068L42.4261 75.9716C40.9774 75.9716 39.8178 74.7157 39.8178 73.267C39.8178 71.8183 41.0738 70.6587 42.5225 70.6587L46.9662 70.7551C52.0857 70.9485 57.3022 70.5617 62.3246 69.8859L63.2908 69.7895C65.0292 69.4998 66.4784 68.1475 66.672 66.3121C66.7683 65.2495 66.4786 64.187 65.8028 63.4141C65.1263 62.5449 64.1607 62.0618 63.0981 61.9655L39.9154 59.5506C37.4041 59.2609 34.7958 59.9367 32.5743 61.289L12.4826 73.9434L31.3186 90.171L50.7342 93.3586C54.1153 93.9381 57.4956 93.1652 60.2972 91.2335L90.4348 70.7554C91.4974 69.9826 92.2703 68.9199 92.3665 67.5678C92.6562 66.2155 92.2702 64.8631 91.401 63.897L91.4 63.8972Z" fill="#C7F3A4"/><circle cx="62.5" cy="26.5" r="26.5" fill="#C7F3A4"/><path d="M71.2941 13.7949L70.6683 16.1023H66.7522H65.2915L66.0847 17.3289C66.748 18.3544 67.1753 19.5229 67.3331 20.7457L67.4225 21.4388H68.1214H71.2772L70.6653 23.724H68.1422H67.4439L67.3539 24.4164C67.0702 26.6001 66.2344 28.1904 64.9009 29.2792C63.5452 30.3861 61.5677 31.095 58.8818 31.3276L57.3652 31.4589L58.3397 32.6283L67.1533 43.2051H63.0359L52.8963 31.0834L52.8825 28.9116H57.3314C58.984 28.9116 60.3936 28.5606 61.4783 27.7722C62.5109 27.0381 63.2581 25.961 63.5965 24.729L63.8726 23.7236H62.83H52.7077L53.3317 21.4384H62.7471H63.8238L63.5067 20.4094C63.1148 19.1378 62.3709 18.1459 61.2729 17.4869C60.1933 16.8389 58.8318 16.5485 57.2485 16.5484H57.2485H52.6929L53.4032 13.7949H71.2941Z" fill="#195746" stroke="#195746" stroke-width="1.58974"/></svg>