<svg xmlns="http://www.w3.org/2000/svg" width="50" height="50" viewBox="0 0 50 50" fill="none"><path d="M25 0C21.4729 0 18.369 1.76211 16.4836 4.44336C13.2544 3.88086 9.81797 4.83047 7.32422 7.32422C4.83047 9.81797 3.88086 13.2565 4.44336 16.4836C1.76211 18.369 0 21.4729 0 25C0 28.5271 1.76211 31.631 4.44336 33.5164C3.88086 36.7456 4.83047 40.182 7.32422 42.6758C9.81797 45.1695 13.2565 46.1191 16.4836 45.5566C18.369 48.2379 21.4729 50 25 50C28.5271 50 31.631 48.2379 33.5164 45.5566C36.7456 46.1191 40.182 45.1695 42.6758 42.6758C45.1695 40.182 46.1191 36.7435 45.5566 33.5164C48.2379 31.631 50 28.5271 50 25C50 21.4729 48.2379 18.369 45.5566 16.4836C46.1191 13.2544 45.1695 9.81797 42.6758 7.32422C40.182 4.83047 36.7435 3.88086 33.5164 4.44336C31.631 1.76211 28.5271 0 25 0Z" fill="#3F916D"/><path d="M15 27.5L21.0599 33.4738C21.4664 33.8745 22.1253 33.8542 22.5064 33.4293L35 19.5" stroke="white" stroke-width="5" stroke-linecap="round"/></svg>