<svg xmlns="http://www.w3.org/2000/svg" width="15" height="15" viewBox="0 0 37 42" fill="#DBCB94"><path d="M17.9487 0.137939C10.0106 0.137939 0.484924 6.53051 0.484924 17.7175V24.1101V25.7082C0.484924 28.1321 1.53941 29.8579 2.61518 30.8054C3.27111 31.3832 3.54567 31.3922 3.98574 31.567C4.56257 33.0676 8.24996 41.6896 17.9487 41.6896C18.0028 41.6896 18.053 41.684 18.1068 41.6834C18.111 41.6834 18.1151 41.6834 18.1192 41.6834C21.7555 41.6415 24.6553 40.2977 26.8759 38.4934H17.9487C9.48141 38.4934 6.75476 29.997 6.75476 29.997L6.47879 29.1636L5.63227 28.9513C5.63227 28.9513 5.21697 28.8528 4.70513 28.402C4.19328 27.9511 3.66015 27.2797 3.66015 25.7082V24.1101H5.24777C5.24777 12.9231 21.1239 20.9138 25.8868 9.7268C25.8868 9.7268 30.6496 14.1377 30.6496 24.1101V28.9045H31.9488C31.2986 30.7697 29.5618 32.1008 27.4744 32.1008H20.9782C20.65 31.1719 19.7774 30.5026 18.7425 30.5026H17.1549C15.8403 30.5026 14.7735 31.5766 14.7735 32.8999C14.7735 34.2231 15.8403 35.2971 17.1549 35.2971H18.7425C18.8846 35.2971 19.0227 35.2774 19.158 35.2534C19.2819 35.2832 19.4089 35.2978 19.5363 35.2971H27.4744C31.4297 35.2971 34.7244 32.341 35.3101 28.5175C36.3116 27.9799 37.0001 26.931 37.0001 25.7082V24.1101C37.0001 22.9291 36.3581 21.9104 35.4124 21.357V17.7175C35.4124 11.3249 32.2372 3.33422 25.8868 3.33422C25.8868 3.33422 24.2991 0.137939 17.9487 0.137939Z" fill="#DBCB94"/></svg>