<svg xmlns="http://www.w3.org/2000/svg" width="190" height="190" viewBox="0 0 190 190" fill="none"><g filter="url(#filter0_d_629_238)"><circle cx="95" cy="95" r="62.5" fill="url(#paint0_linear_629_238)" stroke="white" stroke-width="5"/><path fill-rule="evenodd" clip-rule="evenodd" d="M92.9583 69.75V62.125H98.0416V69.75H92.9583ZM72.1385 72.8576L75.7326 69.2636L81.1237 74.6547L77.5296 78.2487L72.1385 72.8576ZM115.267 69.2636L109.876 74.6547L113.47 78.2487L118.861 72.8576L115.267 69.2636ZM77.7083 92.625C77.7083 82.8142 85.6891 74.8334 95.5 74.8334C105.311 74.8334 113.292 82.8142 113.292 92.625C113.292 99.7036 109.126 105.812 103.125 108.674V115.5C103.125 118.304 100.845 120.583 98.0416 120.583H92.9583C90.1549 120.583 87.875 118.304 87.875 115.5V108.674C81.8741 105.812 77.7083 99.7036 77.7083 92.625ZM65 90.0834V95.1667H72.625V90.0834H65ZM126 95.1667H118.375V90.0834H126V95.1667ZM77.5296 107.001L72.1385 112.392L75.7326 115.987L81.1237 110.595L77.5296 107.001ZM109.876 110.595L113.47 107.001L118.861 112.392L115.267 115.987L109.876 110.595Z" fill="white"/></g><defs><filter id="filter0_d_629_238" x="0" y="0" width="190" height="190" filterUnits="userSpaceOnUse" color-interpolation-filters="sRGB"><feFlood flood-opacity="0" result="BackgroundImageFix"/><feColorMatrix in="SourceAlpha" type="matrix" values="0 0 0 0 0 0 0 0 0 0 0 0 0 0 0 0 0 0 127 0" result="hardAlpha"/><feOffset/><feGaussianBlur stdDeviation="15"/><feComposite in2="hardAlpha" operator="out"/><feColorMatrix type="matrix" values="0 0 0 0 0 0 0 0 0 0 0 0 0 0 0 0 0 0 0.15 0"/><feBlend mode="normal" in2="BackgroundImageFix" result="effect1_dropShadow_629_238"/><feBlend mode="normal" in="SourceGraphic" in2="effect1_dropShadow_629_238" result="shape"/></filter><linearGradient id="paint0_linear_629_238" x1="95" y1="35" x2="95" y2="155" gradientUnits="userSpaceOnUse"><stop stop-color="#FFD072"/><stop offset="1" stop-color="#CC9526"/></linearGradient></defs></svg>