<svg xmlns="http://www.w3.org/2000/svg" width="190" height="190" viewBox="0 0 190 190" fill="none"><g filter="url(#filter0_d_629_279)"><circle cx="95" cy="95" r="62.5" fill="url(#paint0_linear_629_279)" stroke="white" stroke-width="5"/><path fill-rule="evenodd" clip-rule="evenodd" d="M106.373 74.9448H64.8406C63.8241 74.9448 63.0001 75.7688 63.0001 76.7853V76.979C63 76.9932 63 77.0073 63.0001 77.0214V119.117C63.0001 120.133 63.8241 120.957 64.8406 120.957H123.736C124.753 120.957 125.577 120.133 125.577 119.117V89.4404C124.423 89.9443 123.188 90.2952 121.896 90.4674V117.276H66.6811V80.9627L90.2088 100.818C91.3591 101.788 92.8159 102.321 94.3213 102.321C95.8266 102.321 97.2834 101.788 98.4338 100.818L112.912 88.5994C111.836 87.9474 110.856 87.1526 109.999 86.2412L96.0597 98.0045L96.0596 98.0046C95.5733 98.415 94.9576 98.6401 94.3213 98.6401C93.685 98.6401 93.0692 98.415 92.583 98.0046L92.5829 98.0045L69.6195 78.6258H106.373C106.293 78.0237 106.252 77.4094 106.252 76.7853C106.252 76.1613 106.293 75.5469 106.373 74.9448Z" fill="white"/><circle cx="120.055" cy="76.7853" r="11.5031" fill="white"/><path d="M111.586 63.3977C111.645 63.4231 111.694 63.4666 111.728 63.5223C111.761 63.5779 111.777 63.6429 111.772 63.7082C111.768 63.7734 111.744 63.8358 111.704 63.8864C111.664 63.937 111.609 63.9735 111.548 63.9906L111.543 63.9918C110.915 64.1401 110.279 64.2568 109.649 64.4015C107.641 64.8627 106.447 66.1634 105.993 68.2085C105.853 68.8424 105.753 69.4861 105.606 70.1184C105.603 70.1325 105.599 70.1462 105.594 70.1596C105.571 70.2139 105.534 70.2603 105.487 70.293C105.439 70.3257 105.383 70.3433 105.326 70.3436C105.269 70.3439 105.213 70.3268 105.165 70.2947C105.117 70.2625 105.079 70.2165 105.057 70.1624C105.052 70.1508 105.049 70.1389 105.046 70.1269C104.862 69.3582 104.735 68.5746 104.538 67.8102C104.075 66.0193 102.932 64.917 101.205 64.4582C100.515 64.2748 99.8078 64.1621 99.1149 63.9888C99.1013 63.9854 99.088 63.9811 99.0749 63.976C99.0175 63.9516 98.969 63.9094 98.9359 63.8553C98.9028 63.8012 98.8868 63.7379 98.8901 63.6741C98.8934 63.6102 98.9158 63.549 98.9543 63.4988C98.9929 63.4487 99.0455 63.4121 99.1051 63.3941L99.1096 63.3929C99.7624 63.2284 100.427 63.1139 101.081 62.9532C103.047 62.4701 104.213 61.1743 104.652 59.1624C104.793 58.5137 104.902 57.8577 105.052 57.2111C105.054 57.1998 105.058 57.1887 105.062 57.1778C105.082 57.1278 105.117 57.0847 105.16 57.0534C105.203 57.0221 105.254 57.0038 105.307 57.0005C105.36 56.9973 105.412 57.0092 105.459 57.0349C105.506 57.0606 105.545 57.0992 105.571 57.1463C105.587 57.1724 105.598 57.2008 105.606 57.2305C105.808 58.0665 105.942 58.9216 106.173 59.7483C106.639 61.4139 107.734 62.4444 109.35 62.8795C110.08 63.0761 110.825 63.2131 111.56 63.3892C111.569 63.3914 111.578 63.3943 111.586 63.3977Z" fill="white"/><path d="M137.887 93.8793C137.922 93.8942 137.952 93.9197 137.972 93.9523C137.993 93.9849 138.002 94.023 138 94.0613C137.997 94.0995 137.983 94.1361 137.958 94.1658C137.934 94.1954 137.901 94.2168 137.864 94.2269L137.861 94.2276C137.479 94.3145 137.093 94.3829 136.71 94.4677C135.491 94.7381 134.766 95.5005 134.491 96.6994C134.406 97.071 134.345 97.4484 134.256 97.819C134.254 97.8272 134.251 97.8353 134.248 97.8432C134.235 97.875 134.212 97.9022 134.183 97.9213C134.154 97.9405 134.121 97.9508 134.086 97.951C134.051 97.9512 134.017 97.9412 133.988 97.9223C133.959 97.9034 133.936 97.8765 133.922 97.8448C133.92 97.838 133.917 97.831 133.916 97.824C133.804 97.3734 133.727 96.914 133.607 96.4659C133.326 95.4161 132.632 94.7699 131.584 94.5009C131.165 94.3934 130.736 94.3274 130.315 94.2258C130.307 94.2238 130.298 94.2213 130.291 94.2183C130.256 94.204 130.226 94.1792 130.206 94.1475C130.186 94.1158 130.176 94.0787 130.178 94.0413C130.18 94.0039 130.194 93.968 130.217 93.9386C130.241 93.9092 130.273 93.8877 130.309 93.8772L130.312 93.8765C130.708 93.78 131.112 93.7129 131.509 93.6187C132.702 93.3355 133.41 92.5759 133.676 91.3965C133.762 91.0163 133.829 90.6317 133.919 90.2527C133.921 90.2461 133.923 90.2395 133.925 90.2332C133.938 90.2038 133.959 90.1786 133.985 90.1602C134.011 90.1419 134.042 90.1311 134.074 90.1292C134.106 90.1273 134.138 90.1343 134.167 90.1494C134.195 90.1644 134.219 90.187 134.235 90.2147C134.244 90.23 134.251 90.2466 134.256 90.264C134.379 90.7541 134.46 91.2554 134.6 91.74C134.883 92.7164 135.548 93.3205 136.529 93.5755C136.972 93.6907 137.424 93.7711 137.871 93.8743C137.876 93.8756 137.881 93.8773 137.887 93.8793Z" fill="white"/><path d="M122.614 82.2733C123.102 82.4741 123.296 82.0962 123.39 81.5135L125.099 70.9653C125.208 70.2901 124.814 70.154 124.027 70.6112L112.72 77.1822C112.189 77.49 112.031 77.9168 112.558 78.1335L115.366 79.2897L123.051 72.6355L116.861 80.2609V82.7635C116.861 83.4348 117.474 83.3264 117.927 82.7635L119.391 80.9467L122.614 82.2733Z" fill="#1977D9"/></g><defs><filter id="filter0_d_629_279" x="0" y="0" width="190" height="190" filterUnits="userSpaceOnUse" color-interpolation-filters="sRGB"><feFlood flood-opacity="0" result="BackgroundImageFix"/><feColorMatrix in="SourceAlpha" type="matrix" values="0 0 0 0 0 0 0 0 0 0 0 0 0 0 0 0 0 0 127 0" result="hardAlpha"/><feOffset/><feGaussianBlur stdDeviation="15"/><feComposite in2="hardAlpha" operator="out"/><feColorMatrix type="matrix" values="0 0 0 0 0 0 0 0 0 0 0 0 0 0 0 0 0 0 0.15 0"/><feBlend mode="normal" in2="BackgroundImageFix" result="effect1_dropShadow_629_279"/><feBlend mode="normal" in="SourceGraphic" in2="effect1_dropShadow_629_279" result="shape"/></filter><linearGradient id="paint0_linear_629_279" x1="136.143" y1="166.143" x2="42.7143" y2="29.8571" gradientUnits="userSpaceOnUse"><stop stop-color="#0866CF"/><stop offset="1" stop-color="#5BB6FF"/></linearGradient></defs></svg>