<svg xmlns="http://www.w3.org/2000/svg" width="60" height="39" viewBox="0 0 60 39" fill="none"><path d="M29.6012 0C28.5904 0.00482479 27.6309 0.439079 26.956 1.195L19.0781 9.94121L5.59443 0.63214C4.39337 -0.188131 2.81811 -0.197764 1.60743 0.606408C0.395194 1.41219 -0.212535 2.87259 0.0673402 4.30566L6.11889 35.3938C6.44194 37.0922 7.91805 38.321 9.6389 38.321H49.5695C51.2887 38.321 52.7664 37.0922 53.0879 35.3938L59.1394 4.30566H59.141C59.4209 2.87259 58.8116 1.41223 57.6009 0.606408C56.3887 -0.197764 54.815 -0.188131 53.6139 0.63214L40.1528 9.94121L32.2462 1.195H32.2446C31.5713 0.439079 30.6103 0.00481737 29.6012 0Z" fill="#CAFDA1"/></svg>