<svg xmlns="http://www.w3.org/2000/svg" width="52" height="53" viewBox="0 0 52 53" fill="none"><path d="M13.0194 31.647C9.56771 31.6505 6.25836 33.0266 3.81754 35.4733C1.37672 37.9199 0.0037853 41.2373 0 44.6975V52.0519H22.8984L17.4629 31.647H13.0194Z" fill="#CAFDA1"/><path d="M38.9815 31.647H34.0841L28.6486 52.0519H52.0001V44.6975C51.9963 41.2375 50.6235 37.9202 48.1828 35.4736C45.7422 33.027 42.4331 31.6508 38.9815 31.647Z" fill="#CAFDA1"/><path d="M26.0031 29.7227C28.8415 29.722 31.616 28.8776 33.9757 27.2963C36.3354 25.7149 38.1743 23.4677 39.26 20.8387C40.3457 18.2098 40.6295 15.3171 40.0753 12.5265C39.5211 9.73586 38.1539 7.17264 36.1466 5.16091C34.1393 3.14918 31.5821 1.77928 28.7981 1.22443C26.0142 0.66959 23.1288 0.954711 20.5065 2.04375C17.8842 3.13279 15.643 4.97686 14.0661 7.34275C12.4892 9.70863 11.6476 12.4901 11.6476 15.3355C11.6518 19.1505 13.1658 22.808 15.8572 25.5053C18.5485 28.2026 22.1974 29.7194 26.0031 29.7227Z" fill="#CAFDA1"/><path d="M26.0004 48.2667C25.5264 48.2667 25.0718 48.078 24.7366 47.7419C24.4014 47.4059 24.213 46.9502 24.213 46.4749V33.8831C24.213 33.4079 24.4014 32.9521 24.7366 32.6161C25.0718 32.2801 25.5264 32.0913 26.0004 32.0913C26.4745 32.0913 26.9291 32.2801 27.2643 32.6161C27.5995 32.9521 27.7878 33.4079 27.7878 33.8831V46.4749C27.7878 46.9502 27.5995 47.4059 27.2643 47.7419C26.9291 48.078 26.4745 48.2667 26.0004 48.2667Z" fill="#CAFDA1"/></svg>