<svg xmlns="http://www.w3.org/2000/svg" width="96" height="96" viewBox="0 0 96 96" fill="none"><path d="M48 3C56.9002 3 65.6004 5.6392 73.0007 10.5839C80.4009 15.5285 86.1686 22.5566 89.5746 30.7792C92.9805 39.0019 93.8717 48.0499 92.1353 56.7791C90.399 65.5082 86.1132 73.5264 79.8198 79.8198C73.5264 86.1131 65.5082 90.399 56.7791 92.1353C48.0499 93.8716 39.0019 92.9805 30.7793 89.5746C22.5566 86.1686 15.5286 80.4009 10.5839 73.0006C5.63923 65.6004 3.00003 56.9001 3.00003 48C2.98576 35.109 7.94554 22.7096 16.8462 13.3846" stroke="#C7F3A4" stroke-width="6" stroke-linecap="round" stroke-linejoin="round"/><path d="M3.09766 14.7963L16.9438 11.3347L20.4053 25.1809" stroke="#C7F3A4" stroke-width="6" stroke-linecap="round" stroke-linejoin="round"/><path d="M48 23.771V51.4633L66 60.4633" stroke="#C7F3A4" stroke-width="6" stroke-linecap="round" stroke-linejoin="round"/></svg>