<svg xmlns="http://www.w3.org/2000/svg" width="190" height="190" viewBox="0 0 190 190" fill="none"><g filter="url(#filter0_d_629_295)"><circle cx="95" cy="95" r="62.5" fill="url(#paint0_radial_629_295)" stroke="white" stroke-width="5"/><path d="M120.577 76.4521C120.123 75.9949 119.582 75.6323 118.987 75.3852C118.391 75.1381 117.753 75.0114 117.108 75.0125H72.8917L71.4699 69.6188C71.2239 68.5335 70.6167 67.5639 69.7478 66.8686C68.879 66.1734 67.7998 65.7936 66.687 65.7915H59.3389C58.6542 65.7915 57.9975 66.0635 57.5134 66.5477C57.0292 67.0318 56.7572 67.6885 56.7572 68.3732C56.7572 69.0579 57.0292 69.7146 57.5134 70.1987C57.9975 70.6829 58.6542 70.9549 59.3389 70.9549H66.4683L68.3693 78.1755L72.9747 101.15L74.9174 110.842C75.1476 111.945 75.75 112.935 76.6238 113.647C77.4975 114.358 78.5893 114.748 79.7161 114.75H112.137C112.821 114.75 113.478 114.478 113.962 113.993C114.446 113.509 114.718 112.853 114.718 112.168C114.718 111.483 114.446 110.827 113.962 110.342C113.478 109.858 112.821 109.586 112.137 109.586H79.9471L78.6714 103.225H113.353C114.492 103.231 115.597 102.833 116.472 102.102C117.346 101.37 117.932 100.353 118.127 99.23L120.086 89.7012L121.909 80.8264C121.911 80.8085 121.914 80.7908 121.92 80.7736C121.971 80.489 121.998 80.2005 122 79.9112C122.003 79.2693 121.879 78.633 121.635 78.0393C121.391 77.4455 121.031 76.9061 120.577 76.4521ZM113.084 98.0598H77.6355L74.0502 80.1745H116.758L113.084 98.0598Z" fill="white"/><path d="M82.4478 119.428C81.3147 119.428 80.2166 119.821 79.3407 120.54C78.4649 121.259 77.8653 122.259 77.6443 123.37C77.4234 124.482 77.5946 125.635 78.1288 126.635C78.663 127.634 79.5272 128.417 80.5741 128.85C81.621 129.284 82.7859 129.341 83.8701 129.012C84.9544 128.683 85.891 127.988 86.5203 127.046C87.1496 126.103 87.4327 124.972 87.3214 123.844C87.21 122.717 86.7111 121.663 85.9097 120.862C84.9912 119.944 83.7461 119.428 82.4478 119.428Z" fill="white"/><path d="M107.773 119.428C106.639 119.428 105.541 119.821 104.665 120.54C103.788 121.259 103.189 122.26 102.967 123.371C102.746 124.483 102.918 125.637 103.452 126.637C103.986 127.636 104.851 128.419 105.898 128.853C106.945 129.287 108.11 129.344 109.195 129.015C110.28 128.685 111.216 127.99 111.846 127.048C112.475 126.105 112.759 124.973 112.647 123.845C112.536 122.717 112.036 121.663 111.235 120.862C110.316 119.944 109.071 119.428 107.773 119.428Z" fill="white"/></g><defs><filter id="filter0_d_629_295" x="0" y="0" width="190" height="190" filterUnits="userSpaceOnUse" color-interpolation-filters="sRGB"><feFlood flood-opacity="0" result="BackgroundImageFix"/><feColorMatrix in="SourceAlpha" type="matrix" values="0 0 0 0 0 0 0 0 0 0 0 0 0 0 0 0 0 0 127 0" result="hardAlpha"/><feOffset/><feGaussianBlur stdDeviation="15"/><feComposite in2="hardAlpha" operator="out"/><feColorMatrix type="matrix" values="0 0 0 0 0 0 0 0 0 0 0 0 0 0 0 0 0 0 0.15 0"/><feBlend mode="normal" in2="BackgroundImageFix" result="effect1_dropShadow_629_295"/><feBlend mode="normal" in="SourceGraphic" in2="effect1_dropShadow_629_295" result="shape"/></filter><radialGradient id="paint0_radial_629_295" cx="0" cy="0" r="1" gradientUnits="userSpaceOnUse" gradientTransform="translate(108.5 155) rotate(-107.68) scale(125.949)"><stop stop-color="#FF6F59"/><stop offset="1" stop-color="#FFA98E"/></radialGradient></defs></svg>