<svg xmlns="http://www.w3.org/2000/svg" width="135" height="135" viewBox="0 0 135 135" fill="none"><g filter="url(#filter0_d_629_165)"><rect x="5" y="5" width="125" height="125" rx="15" fill="#3F916D"/></g><path d="M90.2881 99H74.3174V74.0759C74.3174 73.5455 74.5275 73.0369 74.9014 72.6619C75.2754 72.2869 75.7825 72.0762 76.3113 72.0762C76.8402 72.0762 77.3473 72.2869 77.7213 72.6619C78.0952 73.0369 78.3053 73.5455 78.3053 74.0759V95.0006H90.291C90.8199 95.0006 91.327 95.2113 91.7009 95.5863C92.0749 95.9613 92.285 96.47 92.285 97.0003C92.285 97.5307 92.0749 98.0393 91.7009 98.4143C91.327 98.7893 90.8199 99 90.291 99H90.2881Z" fill="white"/><path d="M58.7514 99H42.7668C42.238 99 41.7308 98.7893 41.3569 98.4143C40.9829 98.0393 40.7728 97.5307 40.7728 97.0003C40.7728 96.47 40.9829 95.9613 41.3569 95.5863C41.7308 95.2113 42.238 95.0006 42.7668 95.0006H54.7635V74.0759C54.7635 73.5455 54.9736 73.0369 55.3475 72.6619C55.7214 72.2869 56.2286 72.0762 56.7574 72.0762C57.2863 72.0762 57.7935 72.2869 58.1675 72.6619C58.5414 73.0369 58.7514 73.5455 58.7514 74.0759V99Z" fill="white"/><path d="M66.5198 99C65.991 99 65.4839 98.7893 65.1099 98.4143C64.736 98.0393 64.5259 97.5307 64.5259 97.0003V74.0759C64.5259 73.5455 64.736 73.0369 65.1099 72.6619C65.4839 72.2869 65.991 72.0762 66.5198 72.0762C67.0487 72.0762 67.5559 72.2869 67.9299 72.6619C68.3038 73.0369 68.5138 73.5455 68.5138 74.0759V97.0003C68.5138 97.5307 68.3038 98.0393 67.9299 98.4143C67.5559 98.7893 67.0487 99 66.5198 99Z" fill="white"/><path d="M47.0059 91.7041C46.4771 91.7041 45.97 91.4935 45.596 91.1184C45.2221 90.7434 45.012 90.2348 45.012 89.7044V74.0759C45.012 73.5455 45.2221 73.0369 45.596 72.6619C45.97 72.2869 46.4771 72.0762 47.0059 72.0762C47.5348 72.0762 48.042 72.2869 48.416 72.6619C48.7899 73.0369 48.9999 73.5455 48.9999 74.0759V89.7044C48.9999 90.2348 48.7899 90.7434 48.416 91.1184C48.042 91.4935 47.5348 91.7041 47.0059 91.7041Z" fill="white"/><path d="M86.0688 91.7041C85.54 91.7041 85.0328 91.4935 84.6589 91.1184C84.2849 90.7434 84.0748 90.2348 84.0748 89.7044V74.0759C84.0748 73.5455 84.2849 73.0369 84.6589 72.6619C85.0328 72.2869 85.54 72.0762 86.0688 72.0762C86.5976 72.0762 87.1048 72.2869 87.4787 72.6619C87.8527 73.0369 88.0628 73.5455 88.0628 74.0759V89.7044C88.0628 90.2348 87.8527 90.7434 87.4787 91.1184C87.1048 91.4935 86.5976 91.7041 86.0688 91.7041Z" fill="white"/><path d="M110.384 89.5117H95.7984C95.2696 89.5117 94.7624 89.301 94.3885 88.9259C94.0146 88.5509 93.8044 88.0422 93.8044 87.5117C93.8044 86.9813 94.0146 86.4726 94.3885 86.0975C94.7624 85.7225 95.2696 85.5117 95.7984 85.5117H110.384C110.913 85.5117 111.42 85.7225 111.794 86.0975C112.168 86.4726 112.378 86.9813 112.378 87.5117C112.378 88.0422 112.168 88.5509 111.794 88.9259C111.42 89.301 110.913 89.5117 110.384 89.5117Z" fill="white"/><path d="M104.045 95.0477C103.627 95.0477 103.219 94.9157 102.879 94.6703C102.54 94.4249 102.286 94.0786 102.154 93.6804C102.021 93.2822 102.017 92.8524 102.142 92.4518C102.267 92.0512 102.514 91.7001 102.849 91.4483L107.785 87.7429L102.849 84.0374C102.426 83.7192 102.146 83.2455 102.071 82.7205C101.997 82.1955 102.133 81.6622 102.45 81.2379C102.768 80.8136 103.24 80.5331 103.763 80.4581C104.287 80.3831 104.819 80.5197 105.242 80.8379L112.134 86.0121C112.403 86.2138 112.621 86.4755 112.771 86.7766C112.922 87.0776 113 87.4097 113 87.7464C113 88.0831 112.922 88.4151 112.771 88.7162C112.621 89.0172 112.403 89.2789 112.134 89.4806L105.243 94.6538C104.897 94.9119 104.477 95.0502 104.045 95.0477Z" fill="white"/><path d="M37.2007 89.5117H22.6148C22.086 89.5117 21.5788 89.301 21.2049 88.9259C20.831 88.5509 20.6208 88.0422 20.6208 87.5117C20.6208 86.9813 20.831 86.4726 21.2049 86.0975C21.5788 85.7225 22.086 85.5117 22.6148 85.5117H37.2007C37.7295 85.5117 38.2367 85.7225 38.6106 86.0975C38.9846 86.4726 39.1947 86.9813 39.1947 87.5117C39.1947 88.0422 38.9846 88.5509 38.6106 88.9259C38.2367 89.301 37.7295 89.5117 37.2007 89.5117Z" fill="white"/><path d="M28.9546 95.0459C28.523 95.0468 28.103 94.9064 27.7583 94.646L20.866 89.4718C20.5972 89.2701 20.379 89.0084 20.2287 88.7073C20.0783 88.4063 20 88.0742 20 87.7375C20 87.4009 20.0783 87.0688 20.2287 86.7678C20.379 86.4667 20.5972 86.205 20.866 86.0033L27.7572 80.8301C27.9667 80.6726 28.2051 80.5579 28.4588 80.4927C28.7124 80.4276 28.9764 80.4131 29.2356 80.4503C29.4948 80.4874 29.7442 80.5754 29.9695 80.7092C30.1948 80.843 30.3917 81.02 30.5488 81.2301C30.7059 81.4401 30.8202 81.6792 30.8852 81.9336C30.9501 82.188 30.9645 82.4527 30.9275 82.7127C30.8905 82.9726 30.8028 83.2227 30.6694 83.4487C30.536 83.6747 30.3594 83.8721 30.15 84.0296L25.214 87.7351L30.15 91.4405C30.4848 91.6923 30.7321 92.0434 30.8569 92.444C30.9817 92.8446 30.9776 93.2744 30.8452 93.6726C30.7129 94.0708 30.459 94.4171 30.1195 94.6625C29.78 94.9079 29.3721 95.0399 28.9536 95.0399L28.9546 95.0459Z" fill="white"/><path d="M95.1208 49.7269C95.0975 49.1483 94.962 48.5798 94.722 48.0532L94.7399 48.0352L94.6811 47.9302C94.6113 47.8132 87.9883 36.466 87.9016 36.308C87.2306 35.0082 86.4839 34.0143 83.5607 34.0143H49.5248C48.6062 33.9417 47.6868 34.1463 46.8852 34.6019C46.0835 35.0575 45.4361 35.7433 45.0263 36.571L38.5201 47.7192L38.4852 47.8072V47.8192C38.1669 48.4147 37.9872 49.0748 37.9598 49.7499C37.9525 49.7767 37.9484 49.8042 37.9477 49.8319V59.7984C37.8982 62.0693 38.7479 64.2673 40.3108 65.9113C41.8737 67.5553 44.0223 68.5113 46.2865 68.57C47.6211 68.5603 48.9332 68.2249 50.1095 67.5927C51.2859 66.9605 52.2909 66.0506 53.0381 64.9416C53.7781 66.0575 54.7819 66.9727 55.9598 67.6058C57.1377 68.2388 58.4533 68.5701 59.7897 68.5701C61.1261 68.5701 62.4418 68.2388 63.6197 67.6058C64.7976 66.9727 65.8012 66.0575 66.5413 64.9416C67.2812 66.0575 68.2848 66.9727 69.4626 67.6058C70.6404 68.2388 71.956 68.5701 73.2923 68.5701C74.6287 68.5701 75.9442 68.2388 77.1221 67.6058C78.2999 66.9727 79.3034 66.0575 80.0434 64.9416C80.7906 66.0505 81.7957 66.9604 82.972 67.5926C84.1483 68.2248 85.4604 68.5602 86.7949 68.57C89.0594 68.5124 91.2089 67.5567 92.772 65.9124C94.3351 64.2682 95.1843 62.0695 95.1337 59.7984V49.8259C95.1327 49.7926 95.1284 49.7594 95.1208 49.7269Z" fill="white"/><defs><filter id="filter0_d_629_165" x="0" y="0" width="135" height="135" filterUnits="userSpaceOnUse" color-interpolation-filters="sRGB"><feFlood flood-opacity="0" result="BackgroundImageFix"/><feColorMatrix in="SourceAlpha" type="matrix" values="0 0 0 0 0 0 0 0 0 0 0 0 0 0 0 0 0 0 127 0" result="hardAlpha"/><feOffset/><feGaussianBlur stdDeviation="2.5"/><feComposite in2="hardAlpha" operator="out"/><feColorMatrix type="matrix" values="0 0 0 0 0.650833 0 0 0 0 0.733333 0 0 0 0 0.659083 0 0 0 0.2 0"/><feBlend mode="normal" in2="BackgroundImageFix" result="effect1_dropShadow_629_165"/><feBlend mode="normal" in="SourceGraphic" in2="effect1_dropShadow_629_165" result="shape"/></filter></defs></svg>