<svg xmlns="http://www.w3.org/2000/svg" width="15" height="15" viewBox="0 0 42 35" fill="#DBCB94"><path d="M38.0625 5.25H36.75V3.9375C36.75 2.89321 36.3352 1.89169 35.5967 1.15327C34.8583 0.414843 33.8568 0 32.8125 0H3.9375C2.89321 0 1.89169 0.414843 1.15327 1.15327C0.414843 1.89169 0 2.89321 0 3.9375L0 24.9375C0 25.9818 0.414843 26.9833 1.15327 27.7217C1.89169 28.4602 2.89321 28.875 3.9375 28.875H5.25V30.1875C5.25 31.2318 5.66484 32.2333 6.40327 32.9717C7.14169 33.7102 8.14321 34.125 9.1875 34.125H38.0625C39.1068 34.125 40.1083 33.7102 40.8467 32.9717C41.5852 32.2333 42 31.2318 42 30.1875V9.1875C42 8.14321 41.5852 7.14169 40.8467 6.40327C40.1083 5.66484 39.1068 5.25 38.0625 5.25ZM39.375 9.1875V10.5H7.875V9.1875C7.875 8.8394 8.01328 8.50556 8.25942 8.25942C8.50556 8.01328 8.8394 7.875 9.1875 7.875H38.0625C38.4106 7.875 38.7444 8.01328 38.9906 8.25942C39.2367 8.50556 39.375 8.8394 39.375 9.1875ZM39.375 18.375H7.875V13.125H39.375V18.375ZM3.9375 26.25C3.5894 26.25 3.25556 26.1117 3.00942 25.8656C2.76328 25.6194 2.625 25.2856 2.625 24.9375V3.9375C2.625 3.5894 2.76328 3.25556 3.00942 3.00942C3.25556 2.76328 3.5894 2.625 3.9375 2.625H32.8125C33.1606 2.625 33.4944 2.76328 33.7406 3.00942C33.9867 3.25556 34.125 3.5894 34.125 3.9375V5.25H9.1875C8.14321 5.25 7.14169 5.66484 6.40327 6.40327C5.66484 7.14169 5.25 8.14321 5.25 9.1875V26.25H3.9375ZM38.0625 31.5H9.1875C8.8394 31.5 8.50556 31.3617 8.25942 31.1156C8.01328 30.8694 7.875 30.5356 7.875 30.1875V21H39.375V30.1875C39.375 30.5356 39.2367 30.8694 38.9906 31.1156C38.7444 31.3617 38.4106 31.5 38.0625 31.5Z" fill="#DBCB94"/><path d="M19.6875 26.25H17.0625C16.7144 26.25 16.3806 26.3883 16.1344 26.6344C15.8883 26.8806 15.75 27.2144 15.75 27.5625C15.75 27.9106 15.8883 28.2444 16.1344 28.4906C16.3806 28.7367 16.7144 28.875 17.0625 28.875H19.6875C20.0356 28.875 20.3694 28.7367 20.6156 28.4906C20.8617 28.2444 21 27.9106 21 27.5625C21 27.2144 20.8617 26.8806 20.6156 26.6344C20.3694 26.3883 20.0356 26.25 19.6875 26.25Z" fill="#DBCB94"/><path d="M27.5625 26.25H24.9375C24.5894 26.25 24.2556 26.3883 24.0094 26.6344C23.7633 26.8806 23.625 27.2144 23.625 27.5625C23.625 27.9106 23.7633 28.2444 24.0094 28.4906C24.2556 28.7367 24.5894 28.875 24.9375 28.875H27.5625C27.9106 28.875 28.2444 28.7367 28.4906 28.4906C28.7367 28.2444 28.875 27.9106 28.875 27.5625C28.875 27.2144 28.7367 26.8806 28.4906 26.6344C28.2444 26.3883 27.9106 26.25 27.5625 26.25Z" fill="#DBCB94"/><path d="M35.4375 26.25H32.8125C32.4644 26.25 32.1306 26.3883 31.8844 26.6344C31.6383 26.8806 31.5 27.2144 31.5 27.5625C31.5 27.9106 31.6383 28.2444 31.8844 28.4906C32.1306 28.7367 32.4644 28.875 32.8125 28.875H35.4375C35.7856 28.875 36.1194 28.7367 36.3656 28.4906C36.6117 28.2444 36.75 27.9106 36.75 27.5625C36.75 27.2144 36.6117 26.8806 36.3656 26.6344C36.1194 26.3883 35.7856 26.25 35.4375 26.25Z" fill="#DBCB94"/></svg>