<svg xmlns="http://www.w3.org/2000/svg" width="135" height="135" viewBox="0 0 135 135" fill="none"><g filter="url(#filter0_d_629_188)"><rect x="5" y="5" width="125" height="125" rx="15" fill="#3F916D"/></g><path d="M52.5217 73.2407C48.6717 73.2447 44.9805 74.7795 42.258 77.5085C39.5356 80.2375 38.0042 83.9376 38 87.7971V96.0001H63.5405L57.4778 73.2407H52.5217Z" fill="white"/><path d="M81.4793 73.2407H76.0167L69.954 96.0001H96V87.7971C95.9958 83.9378 94.4645 80.2378 91.7423 77.5089C89.02 74.7799 85.3291 73.245 81.4793 73.2407Z" fill="white"/><path d="M67.0034 71.0946C70.1693 71.0938 73.2639 70.152 75.8959 68.3882C78.5279 66.6244 80.579 64.1179 81.79 61.1855C83.001 58.2532 83.3175 55.0268 82.6993 51.9142C82.0812 48.8016 80.5563 45.9426 78.3174 43.6987C76.0785 41.4549 73.2261 39.9269 70.121 39.3081C67.0159 38.6892 63.7974 39.0072 60.8726 40.2219C57.9478 41.4366 55.4479 43.4935 53.6891 46.1323C51.9303 48.7712 50.9915 51.8736 50.9915 55.0473C50.9963 59.3025 52.6849 63.382 55.6868 66.3906C58.6887 69.3991 62.7586 71.0909 67.0034 71.0946Z" fill="white"/><path d="M67.0005 91.7781C66.4717 91.7781 65.9647 91.5676 65.5908 91.1928C65.2169 90.818 65.0068 90.3097 65.0068 89.7796V75.7349C65.0068 75.2048 65.2169 74.6965 65.5908 74.3217C65.9647 73.9469 66.4717 73.7363 67.0005 73.7363C67.5292 73.7363 68.0363 73.9469 68.4102 74.3217C68.7841 74.6965 68.9941 75.2048 68.9941 75.7349V89.7796C68.9941 90.3097 68.7841 90.818 68.4102 91.1928C68.0363 91.5676 67.5292 91.7781 67.0005 91.7781Z" fill="white"/><defs><filter id="filter0_d_629_188" x="0" y="0" width="135" height="135" filterUnits="userSpaceOnUse" color-interpolation-filters="sRGB"><feFlood flood-opacity="0" result="BackgroundImageFix"/><feColorMatrix in="SourceAlpha" type="matrix" values="0 0 0 0 0 0 0 0 0 0 0 0 0 0 0 0 0 0 127 0" result="hardAlpha"/><feOffset/><feGaussianBlur stdDeviation="2.5"/><feComposite in2="hardAlpha" operator="out"/><feColorMatrix type="matrix" values="0 0 0 0 0.650833 0 0 0 0 0.733333 0 0 0 0 0.659083 0 0 0 0.2 0"/><feBlend mode="normal" in2="BackgroundImageFix" result="effect1_dropShadow_629_188"/><feBlend mode="normal" in="SourceGraphic" in2="effect1_dropShadow_629_188" result="shape"/></filter></defs></svg>