<svg xmlns="http://www.w3.org/2000/svg" width="15" height="15" viewBox="0 0 42 42" fill="#28B379" stroke="#fff"><path d="M22.5583 0.661556L25.14 3.32968C25.4012 3.59966 25.7268 3.79729 26.0856 3.9036C26.4443 4.0099 26.8242 4.02127 27.1885 3.93667L30.7897 3.10056C31.073 3.0348 31.3664 3.02687 31.6528 3.07724C31.9392 3.12761 32.2127 3.23527 32.4572 3.39387C32.7017 3.55247 32.9124 3.75881 33.0767 4.00077C33.2411 4.24273 33.3558 4.51542 33.4142 4.80279L34.1567 8.45605C34.2319 8.8257 34.4 9.16963 34.6448 9.4548C34.8897 9.73997 35.2031 9.95679 35.555 10.0844L39.0322 11.3459C39.3058 11.4451 39.5569 11.5985 39.7709 11.7971C39.9848 11.9957 40.1572 12.2355 40.278 12.5023C40.3988 12.7692 40.4654 13.0577 40.4741 13.3509C40.4827 13.6441 40.4332 13.9362 40.3283 14.2098L38.9959 17.6881C38.861 18.04 38.8181 18.4211 38.8713 18.7946C38.9245 19.1681 39.072 19.5216 39.2996 19.821L41.5492 22.7795C41.7262 23.0122 41.8553 23.2782 41.9289 23.562C42.0025 23.8458 42.0192 24.1416 41.9779 24.4319C41.9366 24.7223 41.8381 25.0013 41.6884 25.2527C41.5386 25.5041 41.3405 25.7228 41.1058 25.8958L38.1215 28.0949C37.8195 28.3174 37.5793 28.6146 37.424 28.9579C37.2687 29.3011 37.2035 29.6789 37.2347 30.0549L37.5422 33.7713C37.5663 34.0636 37.5323 34.3578 37.4422 34.6367C37.352 34.9156 37.2075 35.1735 37.0171 35.3952C36.8268 35.6169 36.5945 35.7979 36.3338 35.9277C36.0731 36.0574 35.7893 36.1333 35.4992 36.1507L31.8104 36.3722C31.4372 36.3948 31.0761 36.5138 30.7616 36.7179C30.4471 36.9219 30.1899 37.204 30.0146 37.5373L28.2824 40.8314C28.1462 41.0905 27.96 41.3194 27.7347 41.5048C27.5095 41.6902 27.2498 41.8283 26.971 41.9109C26.6921 41.9935 26.3997 42.019 26.111 41.986C25.8222 41.9529 25.5429 41.8619 25.2894 41.7183L22.0676 39.8924C21.7416 39.7075 21.3739 39.6105 21 39.6105C20.6261 39.6105 20.2584 39.7075 19.9324 39.8924L16.7106 41.7183C16.4571 41.8619 16.1779 41.9529 15.8891 41.986C15.6003 42.019 15.3079 41.9935 15.029 41.9109C14.7502 41.8283 14.4905 41.6902 14.2653 41.5048C14.04 41.3194 13.8538 41.0905 13.7176 40.8314L11.9854 37.5373C11.8101 37.204 11.5529 36.9219 11.2384 36.7179C10.9239 36.5138 10.5628 36.3948 10.1896 36.3722L6.50087 36.1507C6.21072 36.1333 5.92695 36.0574 5.66626 35.9277C5.40557 35.7979 5.17323 35.6169 4.98288 35.3952C4.79253 35.1735 4.64801 34.9156 4.55785 34.6367C4.46769 34.3578 4.43369 34.0636 4.45785 33.7713L4.76537 30.0549C4.79653 29.6789 4.73131 29.3011 4.57601 28.9579C4.4207 28.6146 4.18053 28.3174 3.87855 28.0949L0.894177 25.8958C0.659459 25.7228 0.461394 25.5041 0.311634 25.2527C0.161874 25.0013 0.0634494 24.7223 0.0221354 24.4319C-0.0191786 24.1416 -0.00254515 23.8458 0.0710663 23.562C0.144678 23.2782 0.273776 23.0122 0.450768 22.7795L2.7004 19.821C2.92802 19.5216 3.07551 19.1681 3.1287 18.7946C3.1819 18.4211 3.139 18.04 3.00413 17.6881L1.67168 14.2098C1.56685 13.9362 1.51731 13.6441 1.52595 13.3509C1.53459 13.0577 1.60126 12.7692 1.72202 12.5023C1.84279 12.2355 2.0152 11.9957 2.22914 11.7971C2.44308 11.5985 2.69422 11.4451 2.96778 11.3459L6.44499 10.0844C6.79686 9.95679 7.11031 9.73997 7.35519 9.4548C7.60006 9.16963 7.76813 8.8257 7.84328 8.45605L8.58577 4.80279C8.64417 4.51542 8.75892 4.24273 8.92328 4.00077C9.08763 3.75881 9.29828 3.55247 9.54282 3.39387C9.78735 3.23527 10.0608 3.12761 10.3472 3.07724C10.6336 3.02687 10.927 3.0348 11.2103 3.10056L14.8115 3.93667C15.1758 4.02127 15.5557 4.0099 15.9144 3.9036C16.2732 3.79729 16.5988 3.59966 16.86 3.32968L19.4418 0.661556C19.6448 0.452125 19.8872 0.285726 20.1548 0.172121C20.4223 0.0585173 20.7097 0 21 0C21.2903 0 21.5777 0.0585173 21.8453 0.172121C22.1129 0.285726 22.3553 0.452125 22.5583 0.661556Z" fill="#28B379"/><path d="M29.2205 14.2602L18.8915 28.1756L12.776 23.5524" stroke="#fff" stroke-width="4.2"/></svg>