<svg xmlns="http://www.w3.org/2000/svg" width="15" height="15" viewBox="0 0 45 45" fill="#DBCB94"><g id="icons8-bot"><path id="Shape" fill-rule="evenodd" clip-rule="evenodd" d="M18.0065 4.4936C18.0065 2.01185 20.0183 0 22.5001 0C24.9818 0 26.9937 2.01185 26.9937 4.4936C26.9908 6.09617 26.1347 7.57595 24.7469 8.37723V13.4808H31.4873C36.4504 13.4808 40.4745 17.5048 40.4745 22.468V31.4552H42.7213C43.5315 31.4437 44.2852 31.8695 44.6937 32.5693C45.1022 33.2692 45.1022 34.1348 44.6937 34.8347C44.2852 35.5345 43.5315 35.9603 42.7213 35.9488H40.4745V40.4424C40.4745 42.9251 38.4636 44.936 35.9809 44.936H9.01926C6.53655 44.936 4.52566 42.9251 4.52566 40.4424V35.9488H2.27886C1.46858 35.9603 0.714905 35.5345 0.306423 34.8347C-0.10206 34.1348 -0.10206 33.2692 0.306423 32.5693C0.714905 31.8695 1.46858 31.4437 2.27886 31.4552H4.52566V22.468C4.52566 17.5048 8.54968 13.4808 13.5129 13.4808H20.2533V8.38162C18.864 7.57955 18.0077 6.09774 18.0065 4.4936ZM18.0066 25.838C18.0066 23.9776 16.4967 22.4678 14.6364 22.4678C12.776 22.4678 11.2662 23.9776 11.2662 25.838C11.2662 27.6983 12.776 29.2082 14.6364 29.2082C16.4967 29.2082 18.0066 27.6983 18.0066 25.838ZM30.364 22.4678C32.2244 22.4678 33.7342 23.9776 33.7342 25.838C33.7342 27.6983 32.2244 29.2082 30.364 29.2082C28.5037 29.2082 26.9938 27.6983 26.9938 25.838C26.9938 23.9776 28.5037 22.4678 30.364 22.4678ZM26.9936 35.9488H18.0064C16.7662 35.9488 15.7596 36.9554 15.7596 38.1956C15.7596 39.4359 16.7662 40.4424 18.0064 40.4424H26.9936C28.2338 40.4424 29.2404 39.4359 29.2404 38.1956C29.2404 36.9554 28.2338 35.9488 26.9936 35.9488Z" fill="#DBCB94"/></g></svg>