<svg xmlns="http://www.w3.org/2000/svg" width="135" height="135" viewBox="0 0 135 135" fill="none"><g filter="url(#filter0_d_629_178)"><rect x="5" y="5" width="125" height="125" rx="15" fill="#3F916D"/></g><path d="M73.2084 90.926C70.7475 90.9287 68.3881 91.9024 66.6479 93.6336C64.9078 95.3648 63.9291 97.7121 63.9265 100.16V105H80.8888L76.3762 90.926H73.2084Z" fill="white"/><path d="M91.7181 90.926H88.2263L83.7137 105H101V100.16C100.997 97.7122 100.018 95.3651 98.2782 93.6339C96.5381 91.9028 94.1789 90.9289 91.7181 90.926Z" fill="white"/><path d="M82.5444 92.0015H82.385C81.7137 92.0015 81.1696 92.5428 81.1696 93.2106V100.258C81.1696 100.926 81.7137 101.467 82.385 101.467H82.5444C83.2156 101.467 83.7598 100.926 83.7598 100.258V93.2106C83.7598 92.5428 83.2156 92.0015 82.5444 92.0015Z" fill="white"/><path d="M82.4652 89.5674C84.4882 89.5674 86.4658 88.9706 88.1479 87.8524C89.83 86.7342 91.141 85.1449 91.9152 83.2855C92.6893 81.426 92.8919 79.3799 92.4972 77.406C92.1026 75.432 91.1284 73.6188 89.6979 72.1956C88.2674 70.7724 86.4449 69.8033 84.4607 69.4106C82.4766 69.018 80.4199 69.2195 78.5509 69.9897C76.6819 70.7599 75.0844 72.0642 73.9604 73.7377C72.8365 75.4111 72.2366 77.3786 72.2366 79.3912C72.2409 82.0888 73.3199 84.6747 75.2372 86.5822C77.1545 88.4897 79.7537 89.5632 82.4652 89.5674Z" fill="white"/><path d="M44.1622 93.997C43.6302 93.997 43.1201 93.7868 42.744 93.4126C42.3678 93.0384 42.1566 92.5309 42.1566 92.0017V71.0039C42.1566 70.4747 42.3678 69.9672 42.744 69.593C43.1201 69.2188 43.6302 69.0085 44.1622 69.0085C44.6941 69.0085 45.2042 69.2188 45.5803 69.593C45.9564 69.9672 46.1678 70.4747 46.1678 71.0039V92.0017C46.1678 92.5309 45.9564 93.0384 45.5803 93.4126C45.2042 93.7868 44.6941 93.997 44.1622 93.997Z" fill="white"/><path d="M59.7698 93.997H39.7659C39.2339 93.997 38.7238 93.7868 38.3477 93.4126C37.9716 93.0384 37.7603 92.5309 37.7603 92.0017C37.7603 91.4725 37.9716 90.965 38.3477 90.5908C38.7238 90.2166 39.2339 90.0063 39.7659 90.0063H59.7698C60.3017 90.0063 60.8118 90.2166 61.188 90.5908C61.5641 90.965 61.7754 91.4725 61.7754 92.0017C61.7754 92.5309 61.5641 93.0384 61.188 93.4126C60.8118 93.7868 60.3017 93.997 59.7698 93.997Z" fill="white"/><path d="M94.5088 46.6926C94.4854 46.1152 94.3491 45.548 94.1077 45.0225L94.1257 45.0045L94.0665 44.8998C93.9963 44.7831 87.3347 33.4606 87.2474 33.303C86.5726 32.006 85.8215 31.0143 82.8812 31.0143H48.6467C47.7227 30.9418 46.798 31.146 45.9917 31.6006C45.1853 32.0552 44.5341 32.7395 44.1219 33.5653L37.5778 44.6893L37.5426 44.777V44.789C37.2225 45.3832 37.0418 46.0419 37.0142 46.7155C37.0069 46.7422 37.0028 46.7697 37.0021 46.7973V56.742C36.9522 59.0079 37.8069 61.2012 39.3789 62.8416C40.9509 64.482 43.1121 65.436 45.3895 65.4945C46.7318 65.4848 48.0517 65.1501 49.2349 64.5193C50.418 63.8885 51.429 62.9806 52.1805 61.874C52.9249 62.9875 53.9344 63.9007 55.1192 64.5324C56.304 65.164 57.6274 65.4946 58.9715 65.4946C60.3157 65.4946 61.6391 65.164 62.8239 64.5324C64.0086 63.9007 65.0181 62.9875 65.7625 61.874C66.5068 62.9875 67.5162 63.9007 68.7009 64.5324C69.8856 65.1641 71.2088 65.4946 72.5529 65.4946C73.8971 65.4946 75.2203 65.1641 76.405 64.5324C77.5897 63.9007 78.5991 62.9875 79.3434 61.874C80.095 62.9805 81.106 63.8884 82.2891 64.5192C83.4723 65.15 84.792 65.4847 86.1343 65.4945C88.4121 65.437 90.574 64.4834 92.1463 62.8427C93.7185 61.2021 94.5727 59.0082 94.5218 56.742V46.7913C94.5208 46.7581 94.5165 46.725 94.5088 46.6926Z" fill="white"/><defs><filter id="filter0_d_629_178" x="0" y="0" width="135" height="135" filterUnits="userSpaceOnUse" color-interpolation-filters="sRGB"><feFlood flood-opacity="0" result="BackgroundImageFix"/><feColorMatrix in="SourceAlpha" type="matrix" values="0 0 0 0 0 0 0 0 0 0 0 0 0 0 0 0 0 0 127 0" result="hardAlpha"/><feOffset/><feGaussianBlur stdDeviation="2.5"/><feComposite in2="hardAlpha" operator="out"/><feColorMatrix type="matrix" values="0 0 0 0 0.650833 0 0 0 0 0.733333 0 0 0 0 0.659083 0 0 0 0.2 0"/><feBlend mode="normal" in2="BackgroundImageFix" result="effect1_dropShadow_629_178"/><feBlend mode="normal" in="SourceGraphic" in2="effect1_dropShadow_629_178" result="shape"/></filter></defs></svg>