<svg xmlns="http://www.w3.org/2000/svg" width="68" height="62" viewBox="0 0 68 62" fill="none"><path d="M41.6345 20.8741C42.4025 20.5779 43.0329 20.3293 43.6669 20.0901C44.5232 19.7688 45.1552 19.9623 45.4995 20.8607C46.4422 23.3221 47.3903 25.7816 48.3438 28.2392C48.6832 29.1189 48.3878 29.7097 47.5158 30.0445C46.8845 30.2881 46.2532 30.5316 45.4755 30.8316L46.5313 33.5686C47.6812 36.5497 48.8619 39.5193 49.9473 42.5237C50.1138 42.9849 50.0148 43.759 49.711 44.1023C49.4845 44.3585 48.6341 44.3356 48.224 44.1258C41.1258 40.4939 33.5961 39.8325 25.8177 41.0263C23.5338 41.3767 21.2918 42.0057 18.8114 42.5557C20.0828 44.7337 21.1759 46.6192 22.2813 48.4979C23.5975 50.7341 24.9272 52.9626 26.2442 55.1982C26.9147 56.3361 26.7203 56.9225 25.4845 57.4303C24.5168 57.8292 23.5264 58.1722 22.5577 58.5685C21.6501 58.9399 21.0621 58.6868 20.5721 57.8395C18.334 53.9688 16.0491 50.1249 13.7947 46.2636C13.366 45.5296 13.0168 44.9736 11.9075 45.0611C10.3675 45.1831 9.23995 44.2727 8.6592 42.8504C7.84407 40.8541 7.05794 38.843 6.3309 36.8145C5.62322 34.8369 6.52136 32.9791 8.55624 32.1422C11.0871 31.1012 13.7077 30.2537 16.165 29.0628C24.8806 24.839 31.2491 18.3804 34.8049 9.31138C34.9776 8.87065 35.5625 8.25368 35.8916 8.28834C36.3469 8.33629 36.9456 8.84226 37.1298 9.29563C38.4981 12.6621 39.7787 16.064 41.087 19.4547L41.6345 20.8741Z" fill="#CAFDA1" stroke="#CAFDA1" stroke-width="1.5"/><path d="M61.1806 38.5192C61.0309 38.8927 60.9766 39.3944 60.697 39.6233C60.4135 39.8545 59.816 40.005 59.5125 39.8631C57.1227 38.745 54.747 37.5902 52.4321 36.3294C52.0967 36.1468 51.8921 35.2712 52.0325 34.8468C52.1293 34.5525 53.0522 34.2073 53.3862 34.3587C55.7883 35.4487 58.1372 36.6537 60.4924 37.8432C60.7238 37.9595 60.8825 38.2197 61.1806 38.5192Z" fill="#CAFDA1" stroke="#CAFDA1" stroke-width="1.5"/><path d="M47.5513 3.21073C47.4838 3.6382 47.3872 4.06077 47.262 4.47548C46.44 6.59918 45.5903 8.71222 44.7586 10.8322C44.4507 11.6167 44.0053 12.2449 43.0629 11.8399C42.2198 11.4773 42.2712 10.7691 42.5749 10.0167C43.4568 7.83086 44.2785 5.61968 45.2222 3.46087C45.3991 3.05601 45.9999 2.70299 46.4656 2.59813C46.7576 2.53251 47.5717 3 47.5513 3.21073Z" fill="#CAFDA1" stroke="#CAFDA1" stroke-width="1.5"/><path d="M55.2585 21.6638C54.2069 22.0695 53.1559 22.4782 52.1032 22.8809C51.3685 23.1615 50.7139 23.0856 50.4082 22.287C50.1025 21.4884 50.5503 20.9899 51.2753 20.7074C53.4136 19.8743 55.5547 19.0484 57.6986 18.2296C58.4344 17.9474 59.1084 18.0455 59.4023 18.8263C59.6937 19.5999 59.2733 20.1208 58.5282 20.4054C57.4374 20.8223 56.3497 21.2457 55.2604 21.6659" fill="#CAFDA1"/><path d="M55.2585 21.6638C54.2069 22.0695 53.1559 22.4782 52.1032 22.8809C51.3685 23.1615 50.7139 23.0856 50.4082 22.287C50.1025 21.4884 50.5503 20.9899 51.2753 20.7074C53.4136 19.8743 55.5547 19.0484 57.6986 18.2296C58.4344 17.9474 59.1084 18.0455 59.4023 18.8263C59.6937 19.5999 59.2733 20.1208 58.5282 20.4054C57.4374 20.8223 56.3497 21.2457 55.2604 21.6659" stroke="#CAFDA1" stroke-width="1.5"/></svg>