<svg xmlns="http://www.w3.org/2000/svg" width="190" height="190" viewBox="0 0 190 190" fill="none"><g filter="url(#filter0_d_629_264)"><circle cx="95" cy="95" r="62.5" fill="url(#paint0_linear_629_264)" stroke="white" stroke-width="5"/><path fill-rule="evenodd" clip-rule="evenodd" d="M89.6084 65.8916C89.6084 62.6378 92.2462 60 95.5 60C98.7538 60 101.392 62.6378 101.392 65.8916C101.388 67.9928 100.265 69.9329 98.4458 70.9835V77.6748H107.283C113.791 77.6748 119.066 82.9508 119.066 89.458V101.241H122.012C123.075 101.226 124.063 101.784 124.598 102.702C125.134 103.62 125.134 104.755 124.598 105.672C124.063 106.59 123.075 107.148 122.012 107.133H119.066V113.024C119.066 116.28 116.43 118.916 113.175 118.916H77.8252C74.5701 118.916 71.9336 116.28 71.9336 113.024V107.133H68.9878C67.9254 107.148 66.9372 106.59 66.4017 105.672C65.8661 104.755 65.8661 103.62 66.4017 102.702C66.9372 101.784 67.9254 101.226 68.9878 101.241H71.9336V89.458C71.9336 82.9508 77.2095 77.6748 83.7168 77.6748H92.5542V70.9892C90.7328 69.9376 89.6101 67.9948 89.6084 65.8916ZM89.6083 93.8767C89.6083 91.4376 87.6287 89.458 85.1896 89.458C82.7505 89.458 80.7709 91.4376 80.7709 93.8767C80.7709 96.3159 82.7505 98.2954 85.1896 98.2954C87.6287 98.2954 89.6083 96.3159 89.6083 93.8767ZM105.81 89.458C108.249 89.458 110.229 91.4376 110.229 93.8767C110.229 96.3159 108.249 98.2954 105.81 98.2954C103.371 98.2954 101.392 96.3159 101.392 93.8767C101.392 91.4376 103.371 89.458 105.81 89.458ZM101.392 107.133H89.6083C87.9822 107.133 86.6625 108.453 86.6625 110.079C86.6625 111.705 87.9822 113.024 89.6083 113.024H101.392C103.018 113.024 104.337 111.705 104.337 110.079C104.337 108.453 103.018 107.133 101.392 107.133Z" fill="white"/></g><defs><filter id="filter0_d_629_264" x="0" y="0" width="190" height="190" filterUnits="userSpaceOnUse" color-interpolation-filters="sRGB"><feFlood flood-opacity="0" result="BackgroundImageFix"/><feColorMatrix in="SourceAlpha" type="matrix" values="0 0 0 0 0 0 0 0 0 0 0 0 0 0 0 0 0 0 127 0" result="hardAlpha"/><feOffset/><feGaussianBlur stdDeviation="15"/><feComposite in2="hardAlpha" operator="out"/><feColorMatrix type="matrix" values="0 0 0 0 0 0 0 0 0 0 0 0 0 0 0 0 0 0 0.15 0"/><feBlend mode="normal" in2="BackgroundImageFix" result="effect1_dropShadow_629_264"/><feBlend mode="normal" in="SourceGraphic" in2="effect1_dropShadow_629_264" result="shape"/></filter><linearGradient id="paint0_linear_629_264" x1="134" y1="143.75" x2="38" y2="17" gradientUnits="userSpaceOnUse"><stop stop-color="#7A49E2"/><stop offset="1" stop-color="#8590F2"/></linearGradient></defs></svg>