<svg xmlns="http://www.w3.org/2000/svg" width="135" height="135" viewBox="0 0 135 135" fill="none"><g filter="url(#filter0_d_629_158)"><rect x="5" y="5" width="125" height="125" rx="15" fill="#3F916D"/></g><path d="M53.9917 44.496C57.1135 41.3901 57.1135 36.3545 53.9917 33.2487C50.8699 30.1428 45.8084 30.1428 42.6866 33.2487C39.5648 36.3545 39.5648 41.3901 42.6866 44.496C45.8084 47.6018 50.8699 47.6018 53.9917 44.496Z" fill="white"/><path d="M80.7199 53.4261C80.8802 51.8312 79.6833 50.4809 78.1657 50.3214L56.8235 49.0455L53.3074 48.971C53.2326 48.971 53.1471 49.0455 53.0723 49.0455L48.915 54.2129C48.7546 54.4468 48.5195 54.5319 48.2737 54.5319C48.0386 54.5319 47.7928 54.4574 47.6325 54.2129L43.4752 49.0455C43.4004 48.971 43.3149 48.886 43.2401 48.886H40.7607C36.6782 48.886 33.5682 52.3841 34.0491 56.3607L36.0476 71.0761C36.2827 73.2983 37.811 75.0526 39.8095 75.765L43.0905 106.068C43.2508 107.418 44.3729 108.375 45.7302 108.375H51.0096C52.3669 108.375 53.4891 107.344 53.6494 106.068L55.1669 91.9052L58.8433 57.3069C58.8433 57.1475 59.0036 56.988 59.1639 56.988L78.0375 55.7971C79.3627 55.8078 80.5596 54.7764 80.7199 53.4261Z" fill="white"/><path d="M99.6896 98.5H98.3644V84.9648C97.8193 85.1349 97.2422 85.2412 96.6544 85.2944L96.5689 85.305H96.0773C95.404 85.305 94.7307 85.2199 94.0895 85.0498V98.5H71.7533V84.8372C70.9411 85.103 70.0862 85.2412 69.2312 85.2412C68.9961 85.2412 68.7716 85.2306 68.5365 85.2093C68.1732 85.1774 67.8205 85.1242 67.4785 85.0498V98.5H65.5334C64.3578 98.5 63.396 99.4569 63.396 100.626C63.396 101.796 64.3578 102.753 65.5334 102.753H69.6052H69.6159H69.6266H96.2056H96.2162H96.2269H99.6789C100.854 102.753 101.816 101.796 101.816 100.626C101.816 99.4569 100.865 98.5 99.6896 98.5Z" fill="white"/><path d="M68.7289 83.0924C70.5671 83.2519 72.4053 82.5395 73.6878 81.2636C74.8847 82.4545 76.4878 83.1775 78.1657 83.1775C79.8436 83.1775 81.4467 82.5395 82.6436 81.3487C83.8406 82.5395 85.3582 83.1775 87.1215 83.1775C88.7994 83.1775 90.4773 82.4651 91.5994 81.2636C92.7964 82.4545 94.3995 83.1775 96.0774 83.1775H96.4728C98.3965 83.018 100.074 81.9866 101.111 80.3173C102.148 78.563 102.308 76.5003 101.432 74.6715L96.7934 64.326C96.1522 62.8906 94.7949 62.0187 93.1918 62.0187H72.0099C70.4923 61.9443 69.0496 62.8906 68.4083 64.2409L63.7701 74.5864C62.9686 76.4152 63.0541 78.563 64.0907 80.2323C65.1274 81.9016 66.8053 82.9329 68.7289 83.0924Z" fill="white"/><defs><filter id="filter0_d_629_158" x="0" y="0" width="135" height="135" filterUnits="userSpaceOnUse" color-interpolation-filters="sRGB"><feFlood flood-opacity="0" result="BackgroundImageFix"/><feColorMatrix in="SourceAlpha" type="matrix" values="0 0 0 0 0 0 0 0 0 0 0 0 0 0 0 0 0 0 127 0" result="hardAlpha"/><feOffset/><feGaussianBlur stdDeviation="2.5"/><feComposite in2="hardAlpha" operator="out"/><feColorMatrix type="matrix" values="0 0 0 0 0.650833 0 0 0 0 0.733333 0 0 0 0 0.659083 0 0 0 0.2 0"/><feBlend mode="normal" in2="BackgroundImageFix" result="effect1_dropShadow_629_158"/><feBlend mode="normal" in="SourceGraphic" in2="effect1_dropShadow_629_158" result="shape"/></filter></defs></svg>